PathFileType	4	(X/Y/Z)	 2.8Hzlow3min.trc
DataRate	CameraRate	NumFrames	NumMarkers	Units	OrigDataRate	OrigDataStartFrame	OrigNumFrames
200	200	9	43	m	200	251	1000
Frame#	Time	C7			LSH			RSH			MAN			RASI			LASI			HIPR			HIPL			RPSI			LPSI			COX			RTHI1			RTHI2			RTHI3			RTHI4			RLKN			RMKN			RSHA1			RSHA2			RSHA3			RSHA4			RLMAL			RMMAL			RHEEL			RMET5			RMET1			RTOE			LTHI1			LTHI2			LTHI3			LTHI4			LLKN			LMKN			LSHA1			LSHA2			LSHA3			LSHA4			LLMAL			LMMAL			LHEEL			LMET5			LMET1			LTOE			
		X1	Y1	Z1	X2	Y2	Z2	X3	Y3	Z3	X4	Y4	Z4	X5	Y5	Z5	X6	Y6	Z6	X7	Y7	Z7	X8	Y8	Z8	X9	Y9	Z9	X10	Y10	Z10	X11	Y11	Z11	X12	Y12	Z12	X13	Y13	Z13	X14	Y14	Z14	X15	Y15	Z15	X16	Y16	Z16	X17	Y17	Z17	X18	Y18	Z18	X19	Y19	Z19	X20	Y20	Z20	X21	Y21	Z21	X22	Y22	Z22	X23	Y23	Z23	X24	Y24	Z24	X25	Y25	Z25	X26	Y26	Z26	X27	Y27	Z27	X28	Y28	Z28	X29	Y29	Z29	X30	Y30	Z30	X31	Y31	Z31	X32	Y32	Z32	X33	Y33	Z33	X34	Y34	Z34	X35	Y35	Z35	X36	Y36	Z36	X37	Y37	Z37	X38	Y38	Z38	X39	Y39	Z39	X40	Y40	Z40	X41	Y41	Z41	X42	Y42	Z42	X43	Y43	Z43	
251	1.2550	-0.293884	1.521605	-0.525685	-0.246454	1.531156	-0.708838	-0.230612	1.516911	-0.360082	-0.165854	1.458006	-0.527465	-0.172393	1.038949	-0.428857	-0.159322	1.041116	-0.638539	-0.239060	1.082497	-0.398275	-0.218632	1.086750	-0.677446	-0.319501	1.078789	-0.482840	-0.315058	1.075036	-0.589729	-0.321167	1.074139	-0.538212	-0.255242	0.826403	-0.351095	-0.240129	0.768357	-0.347428	-0.178819	0.779327	-0.365022	-0.186034	0.840420	-0.371028	-0.254759	0.524033	-0.364446	-0.246101	0.506645	-0.465152	-0.350889	0.355780	-0.360465	-0.359849	0.316482	-0.367467	-0.304545	0.302870	-0.363864	-0.291091	0.343168	-0.361119	-0.366609	0.167831	-0.378326	-0.331979	0.177564	-0.449207	-0.405744	0.155545	-0.436492	-0.288326	0.066506	-0.343027	-0.233273	0.066285	-0.401204	-0.218572	0.065358	-0.388153	-0.267310	0.835259	-0.727859	-0.254550	0.775930	-0.738798	-0.189719	0.783447	-0.737424	-0.194892	0.842284	-0.727940	-0.229494	0.537527	-0.740671	-0.236321	0.518314	-0.631875	-0.317004	0.337938	-0.764666	-0.318187	0.292715	-0.763793	-0.264477	0.289430	-0.762839	-0.255344	0.329140	-0.762795	-0.304979	0.170415	-0.769180	-0.303118	0.173841	-0.691809	-0.363270	0.164774	-0.728348	-0.226186	0.061516	-0.768471	-0.203390	0.061680	-0.695898	-0.179593	0.052760	-0.704642	
252	1.2600	-0.294127	1.521632	-0.526049	-0.246643	1.530951	-0.709459	-0.231114	1.516616	-0.360160	-0.166086	1.458099	-0.527824	-0.172872	1.039170	-0.429286	-0.160154	1.041211	-0.639008	-0.239622	1.082568	-0.398641	-0.219588	1.086668	-0.677844	-0.320065	1.078856	-0.483115	-0.315795	1.074994	-0.590006	-0.321814	1.074129	-0.538462	-0.255144	0.826643	-0.351337	-0.239957	0.768609	-0.347774	-0.178833	0.779607	-0.365935	-0.186129	0.840703	-0.371898	-0.254668	0.524282	-0.364626	-0.246279	0.506920	-0.465354	-0.351698	0.356397	-0.360855	-0.360814	0.317153	-0.367855	-0.305553	0.303318	-0.364185	-0.291954	0.343554	-0.361448	-0.367999	0.168462	-0.378702	-0.333333	0.178060	-0.449642	-0.407109	0.155553	-0.437036	-0.289377	0.068238	-0.342416	-0.234078	0.067779	-0.400305	-0.219376	0.066970	-0.387212	-0.267553	0.834985	-0.727902	-0.254713	0.775662	-0.738757	-0.189894	0.783247	-0.737254	-0.195148	0.842115	-0.727866	-0.228738	0.537447	-0.740336	-0.236496	0.518404	-0.631584	-0.317456	0.338362	-0.764785	-0.318914	0.293142	-0.763824	-0.265245	0.289539	-0.762399	-0.255861	0.329188	-0.762365	-0.306444	0.170805	-0.768875	-0.305025	0.174165	-0.691415	-0.365058	0.164605	-0.728253	-0.226819	0.063033	-0.768582	-0.204227	0.062784	-0.696001	-0.180285	0.053972	-0.704659	
253	1.2650	-0.294370	1.521415	-0.526415	-0.246815	1.530471	-0.710116	-0.231601	1.516053	-0.360236	-0.166326	1.457940	-0.528201	-0.173373	1.039192	-0.429711	-0.161012	1.041050	-0.639515	-0.240235	1.082392	-0.399014	-0.220620	1.086251	-0.678282	-0.320670	1.078635	-0.483410	-0.316567	1.074626	-0.590307	-0.322499	1.073815	-0.538759	-0.254963	0.826643	-0.351566	-0.239673	0.768632	-0.348099	-0.178745	0.779683	-0.366832	-0.186152	0.840770	-0.372759	-0.254500	0.524297	-0.364760	-0.246382	0.506964	-0.465534	-0.352545	0.356816	-0.361257	-0.361815	0.317645	-0.368245	-0.306612	0.303558	-0.364478	-0.292868	0.343705	-0.361761	-0.369479	0.168915	-0.379081	-0.334819	0.178381	-0.450078	-0.408615	0.155545	-0.437510	-0.290637	0.069530	-0.342074	-0.235165	0.068855	-0.399758	-0.220444	0.068139	-0.386651	-0.267702	0.834450	-0.728006	-0.254742	0.775136	-0.738767	-0.189940	0.782824	-0.737046	-0.195311	0.841709	-0.727756	-0.227934	0.537117	-0.740042	-0.236514	0.518256	-0.631330	-0.317991	0.338610	-0.764876	-0.319742	0.293398	-0.763837	-0.266117	0.289436	-0.762002	-0.256472	0.329036	-0.761970	-0.308019	0.171007	-0.768604	-0.307115	0.174330	-0.691061	-0.367001	0.164293	-0.728290	-0.227616	0.064329	-0.768504	-0.205328	0.063727	-0.695897	-0.181232	0.054969	-0.704438	
254	1.2700	-0.294610	1.520962	-0.526785	-0.246968	1.529721	-0.710807	-0.232050	1.515216	-0.360331	-0.166567	1.457527	-0.528594	-0.173892	1.039017	-0.430133	-0.161887	1.040638	-0.640056	-0.240883	1.081986	-0.399393	-0.221704	1.085522	-0.678752	-0.321307	1.078137	-0.483726	-0.317368	1.073951	-0.590633	-0.323215	1.073209	-0.539090	-0.254706	0.826396	-0.351788	-0.239291	0.768419	-0.348409	-0.178555	0.779542	-0.367703	-0.186101	0.840618	-0.373587	-0.254263	0.524067	-0.364849	-0.246414	0.506777	-0.465692	-0.353402	0.357045	-0.361636	-0.362830	0.317931	-0.368616	-0.307688	0.303569	-0.364734	-0.293807	0.343619	-0.362055	-0.371042	0.169186	-0.379442	-0.336408	0.178525	-0.450492	-0.410258	0.155562	-0.437951	-0.292138	0.070310	-0.342015	-0.236574	0.069466	-0.399582	-0.221821	0.068795	-0.386477	-0.267761	0.833659	-0.728168	-0.254638	0.774362	-0.738823	-0.189866	0.782181	-0.736806	-0.195386	0.841078	-0.727618	-0.227102	0.536545	-0.739791	-0.236400	0.517864	-0.631115	-0.318589	0.338678	-0.764942	-0.320656	0.293472	-0.763845	-0.267078	0.289117	-0.761660	-0.257156	0.328682	-0.761624	-0.309697	0.171015	-0.768382	-0.309347	0.174335	-0.690763	-0.369067	0.163851	-0.728442	-0.228610	0.065331	-0.768243	-0.206705	0.064473	-0.695585	-0.182447	0.055730	-0.703972	
255	1.2750	-0.294829	1.520255	-0.527158	-0.247105	1.528706	-0.711529	-0.232447	1.514114	-0.360455	-0.166808	1.456852	-0.529004	-0.174430	1.038634	-0.430562	-0.162772	1.039975	-0.640624	-0.241551	1.081358	-0.399773	-0.222824	1.084505	-0.679243	-0.321969	1.077366	-0.484061	-0.318189	1.072973	-0.590976	-0.323953	1.072313	-0.539443	-0.254379	0.825896	-0.352009	-0.238822	0.767968	-0.348713	-0.178273	0.779177	-0.368526	-0.185975	0.840238	-0.374365	-0.253973	0.523578	-0.364898	-0.246377	0.506353	-0.465828	-0.354222	0.357044	-0.361981	-0.363820	0.317998	-0.368969	-0.308760	0.303340	-0.364966	-0.294716	0.343301	-0.362301	-0.372686	0.169260	-0.379780	-0.338070	0.178478	-0.450878	-0.412030	0.155615	-0.438360	-0.293902	0.070534	-0.342244	-0.238314	0.069598	-0.399775	-0.223539	0.068932	-0.386676	-0.267738	0.832625	-0.728381	-0.254409	0.773352	-0.738916	-0.189683	0.781330	-0.736546	-0.195387	0.840230	-0.727456	-0.226255	0.535732	-0.739585	-0.236181	0.517217	-0.630944	-0.319221	0.338544	-0.764981	-0.321641	0.293357	-0.763866	-0.268117	0.288586	-0.761383	-0.257898	0.328108	-0.761333	-0.311472	0.170826	-0.768221	-0.311696	0.174185	-0.690521	-0.371231	0.163306	-0.728708	-0.229826	0.065982	-0.767798	-0.208365	0.064986	-0.695062	-0.183946	0.056217	-0.703245	
256	1.2800	-0.295023	1.519300	-0.527537	-0.247231	1.527438	-0.712271	-0.232784	1.512743	-0.360614	-0.167053	1.455921	-0.529438	-0.174986	1.038041	-0.431000	-0.163653	1.039070	-0.641211	-0.242223	1.080509	-0.400155	-0.223956	1.083217	-0.679741	-0.322646	1.076332	-0.484418	-0.319026	1.071705	-0.591335	-0.324720	1.071155	-0.539834	-0.253991	0.825137	-0.352236	-0.238281	0.767264	-0.349014	-0.177901	0.778576	-0.369282	-0.185775	0.839621	-0.375077	-0.253633	0.522814	-0.364916	-0.246271	0.505685	-0.465943	-0.354980	0.356825	-0.362276	-0.364774	0.317851	-0.369278	-0.309808	0.302856	-0.365179	-0.295564	0.342743	-0.362505	-0.374393	0.169140	-0.380079	-0.339793	0.178245	-0.451230	-0.413918	0.155700	-0.438741	-0.295923	0.070212	-0.342763	-0.240397	0.069206	-0.400308	-0.225615	0.068513	-0.387207	-0.267643	0.831355	-0.728635	-0.254070	0.772107	-0.739041	-0.189398	0.780272	-0.736267	-0.195319	0.839171	-0.727275	-0.225395	0.534692	-0.739427	-0.235882	0.516315	-0.630816	-0.319885	0.338198	-0.765033	-0.322668	0.293058	-0.763907	-0.269210	0.287839	-0.761170	-0.258677	0.327313	-0.761100	-0.313331	0.170440	-0.768118	-0.314116	0.173882	-0.690353	-0.373467	0.162676	-0.729068	-0.231291	0.066223	-0.767186	-0.210325	0.065209	-0.694336	-0.185749	0.056387	-0.702264	
257	1.2850	-0.295188	1.518100	-0.527922	-0.247341	1.525920	-0.713032	-0.233069	1.511114	-0.360802	-0.167288	1.454729	-0.529892	-0.175556	1.037226	-0.431448	-0.164527	1.037924	-0.641810	-0.242896	1.079443	-0.400542	-0.225088	1.081680	-0.680240	-0.323332	1.075042	-0.484796	-0.319874	1.070154	-0.591702	-0.325505	1.069739	-0.540258	-0.253551	0.824120	-0.352476	-0.237682	0.766304	-0.349320	-0.177447	0.777736	-0.369956	-0.185499	0.838760	-0.375712	-0.253219	0.521782	-0.364916	-0.246099	0.504759	-0.466034	-0.355654	0.356383	-0.362503	-0.365674	0.317481	-0.369532	-0.310818	0.302131	-0.365386	-0.296336	0.341939	-0.362671	-0.376175	0.168820	-0.380347	-0.341581	0.177828	-0.451551	-0.415906	0.155785	-0.439052	-0.298179	0.069375	-0.343549	-0.242803	0.068313	-0.401164	-0.228032	0.067573	-0.388054	-0.267481	0.829853	-0.728917	-0.253642	0.770639	-0.739182	-0.189031	0.779007	-0.735975	-0.195197	0.837901	-0.727080	-0.224533	0.533424	-0.739312	-0.235522	0.515165	-0.630736	-0.320575	0.337667	-0.765123	-0.323732	0.292565	-0.763980	-0.270343	0.286880	-0.761021	-0.259477	0.326290	-0.760919	-0.315248	0.169845	-0.768069	-0.316596	0.173418	-0.690256	-0.375747	0.162000	-0.729530	-0.233025	0.066003	-0.766420	-0.212592	0.065088	-0.693425	-0.187878	0.056186	-0.701061	
258	1.2900	-0.295321	1.516656	-0.528317	-0.247432	1.524161	-0.713809	-0.233311	1.509239	-0.361016	-0.167506	1.453273	-0.530363	-0.176140	1.036175	-0.431907	-0.165388	1.036536	-0.642417	-0.243557	1.078170	-0.400938	-0.226205	1.079912	-0.680730	-0.324021	1.073495	-0.485181	-0.320727	1.068334	-0.592077	-0.326304	1.068070	-0.540695	-0.253069	0.822842	-0.352729	-0.237040	0.765085	-0.349631	-0.176924	0.776646	-0.370549	-0.185159	0.837656	-0.376263	-0.252721	0.520481	-0.364903	-0.245867	0.503577	-0.466104	-0.356226	0.355724	-0.362635	-0.366530	0.316892	-0.369710	-0.311787	0.301156	-0.365594	-0.297008	0.340892	-0.362790	-0.378027	0.168303	-0.380576	-0.343471	0.177231	-0.451853	-0.418005	0.155816	-0.439266	-0.300620	0.068085	-0.344581	-0.245490	0.067022	-0.402348	-0.230742	0.066214	-0.389237	-0.267258	0.828117	-0.729210	-0.253137	0.768953	-0.739324	-0.188591	0.777534	-0.735676	-0.195025	0.836426	-0.726881	-0.223666	0.531934	-0.739238	-0.235122	0.513763	-0.630695	-0.321261	0.336943	-0.765232	-0.324810	0.291875	-0.764085	-0.271495	0.285722	-0.760937	-0.260282	0.325052	-0.760793	-0.317191	0.169050	-0.768079	-0.319101	0.172784	-0.690228	-0.378041	0.161295	-0.730087	-0.235039	0.065262	-0.765509	-0.215169	0.064562	-0.692356	-0.190343	0.055548	-0.699673	
259	1.2950	-0.295417	1.514970	-0.528724	-0.247507	1.522167	-0.714590	-0.233500	1.507122	-0.361265	-0.167711	1.451553	-0.530858	-0.176740	1.034880	-0.432375	-0.166237	1.034908	-0.643021	-0.244200	1.076690	-0.401345	-0.227297	1.077926	-0.681207	-0.324715	1.071701	-0.485572	-0.321580	1.066259	-0.592448	-0.327096	1.066145	-0.541105	-0.252563	0.821309	-0.352996	-0.236366	0.763607	-0.349941	-0.176350	0.775306	-0.371053	-0.184768	0.836304	-0.376740	-0.252127	0.518915	-0.364891	-0.245580	0.502132	-0.466156	-0.356710	0.354835	-0.362678	-0.367335	0.316094	-0.369799	-0.312718	0.299928	-0.365815	-0.297577	0.339599	-0.362876	-0.379943	0.167596	-0.380780	-0.345494	0.176459	-0.452149	-0.420221	0.155749	-0.439328	-0.303189	0.066420	-0.345830	-0.248401	0.065385	-0.403836	-0.233684	0.064497	-0.390753	-0.266987	0.826153	-0.729497	-0.252573	0.767034	-0.739452	-0.188097	0.775852	-0.735366	-0.194809	0.834738	-0.726684	-0.222797	0.530222	-0.739204	-0.234692	0.512119	-0.630689	-0.321925	0.335986	-0.765345	-0.325873	0.290986	-0.764222	-0.272638	0.284372	-0.760907	-0.261080	0.323591	-0.760713	-0.319126	0.168049	-0.768142	-0.321611	0.171972	-0.690260	-0.380316	0.160575	-0.730727	-0.237343	0.063996	-0.764479	-0.218064	0.063588	-0.691156	-0.193169	0.054414	-0.698128	
